<svg width="38" height="37" xmlns="http://www.w3.org/2000/svg" xmlns:xlink="http://www.w3.org/1999/xlink" xml:space="preserve" overflow="hidden"><defs><clipPath id="clip0"><rect x="992" y="239" width="38" height="37"/></clipPath></defs><g clip-path="url(#clip0)" transform="translate(-992 -239)"><path d="M16.9583 36.2292C16.9583 36.6547 16.613 37 16.1875 37L6.9375 37C3.11262 37 0 33.8874 0 30.0625L0 6.93904C0 3.11417 3.11108 0 6.9375 0L23.8958 0C27.7207 0 30.8333 3.11108 30.8333 6.93596L30.8333 11.561C30.8333 11.9865 30.4895 12.3318 30.0625 12.3318 29.6355 12.3318 29.2917 11.9865 29.2917 11.561L29.2917 6.93596C29.2917 3.96054 26.8697 1.54013 23.8958 1.54013L6.9375 1.54013C3.96208 1.54013 1.54167 3.96208 1.54167 6.9375L1.54167 30.061C1.54167 33.0364 3.96362 35.4568 6.9375 35.4568L16.1875 35.4568C16.613 35.4568 16.9583 35.8021 16.9583 36.2276ZM36.7749 36.7749C36.6238 36.926 36.4265 37 36.2292 37 36.0318 37 35.8345 36.9245 35.6834 36.7749L30.4063 31.4978C28.6534 33.0025 26.381 33.9167 23.8943 33.9167 18.369 33.9167 13.8735 29.4212 13.8735 23.8958 13.8735 18.3705 18.369 13.875 23.8943 13.875 29.4196 13.875 33.9151 18.3705 33.9151 23.8958 33.9151 26.381 32.9994 28.6534 31.4963 30.4078L36.7734 35.685C37.074 35.9856 37.074 36.4743 36.7734 36.7749ZM32.375 23.8958C32.375 19.2215 28.5717 15.4167 23.8958 15.4167 19.22 15.4167 15.4167 19.2215 15.4167 23.8958 15.4167 28.5702 19.22 32.375 23.8958 32.375 28.5717 32.375 32.375 28.5702 32.375 23.8958ZM10.0208 7.70833 6.9375 7.70833C6.512 7.70833 6.16667 8.05367 6.16667 8.47917 6.16667 8.90467 6.512 9.25 6.9375 9.25L10.0208 9.25C10.4463 9.25 10.7917 8.90467 10.7917 8.47917 10.7917 8.05367 10.4463 7.70833 10.0208 7.70833ZM10.0208 23.125 6.9375 23.125C6.512 23.125 6.16667 23.4703 6.16667 23.8958 6.16667 24.3213 6.512 24.6667 6.9375 24.6667L10.0208 24.6667C10.4463 24.6667 10.7917 24.3213 10.7917 23.8958 10.7917 23.4703 10.4463 23.125 10.0208 23.125ZM14.6458 7.70833C14.2203 7.70833 13.875 8.05367 13.875 8.47917 13.875 8.90467 14.2203 9.25 14.6458 9.25L23.8958 9.25C24.3213 9.25 24.6667 8.90467 24.6667 8.47917 24.6667 8.05367 24.3213 7.70833 23.8958 7.70833L14.6458 7.70833ZM10.0208 15.4167 6.9375 15.4167C6.512 15.4167 6.16667 15.762 6.16667 16.1875 6.16667 16.613 6.512 16.9583 6.9375 16.9583L10.0208 16.9583C10.4463 16.9583 10.7917 16.613 10.7917 16.1875 10.7917 15.762 10.4463 15.4167 10.0208 15.4167ZM27.9705 21.7853 23.7987 25.8214C23.2792 26.3301 22.4328 26.3363 21.9132 25.8275L19.812 23.754C19.5098 23.4549 19.0211 23.458 18.722 23.7602 18.4229 24.0639 18.426 24.5526 18.7297 24.8501L20.8325 26.9267C21.3906 27.4725 22.1229 27.7454 22.8552 27.7454 23.5875 27.7454 24.3213 27.471 24.8763 26.9237L29.0435 22.8937C29.3487 22.5977 29.358 22.109 29.062 21.8038 28.7675 21.4985 28.2788 21.4924 27.972 21.7853Z" transform="matrix(1.02703 0 0 1 992 239)"/></g></svg>