<svg width="38" height="37" xmlns="http://www.w3.org/2000/svg" xmlns:xlink="http://www.w3.org/1999/xlink" xml:space="preserve" overflow="hidden"><defs><clipPath id="clip0"><rect x="378" y="618" width="38" height="37"/></clipPath></defs><g clip-path="url(#clip0)" transform="translate(-378 -618)"><path d="M24.5896 3.08333C24.2319 1.32583 22.6748 0 20.8125 0L16.1875 0C14.3252 0 12.7696 1.32583 12.4104 3.08333L4.625 3.08333 4.625 33.1458C4.625 35.2702 6.35475 37 8.47917 37L28.5208 37C30.6453 37 32.375 35.2702 32.375 33.1458L32.375 3.08333 24.5896 3.08333ZM30.8333 33.1458C30.8333 34.4208 29.7958 35.4583 28.5208 35.4583L8.47917 35.4583C7.20421 35.4583 6.16667 34.4208 6.16667 33.1458L6.16667 4.625 13.875 4.625 13.875 3.85417C13.875 2.57921 14.9125 1.54167 16.1875 1.54167L20.8125 1.54167C22.0875 1.54167 23.125 2.57921 23.125 3.85417L23.125 4.625 30.8333 4.625 30.8333 33.1458ZM19.2708 12.3333 23.8958 12.3333 23.8958 13.875 19.2708 13.875 19.2708 18.5 17.7292 18.5 17.7292 13.875 13.1042 13.875 13.1042 12.3333 17.7292 12.3333 17.7292 7.70833 19.2708 7.70833 19.2708 12.3333ZM10.7917 23.125 26.2083 23.125 26.2083 24.6667 10.7917 24.6667 10.7917 23.125ZM10.7917 29.2917 21.5833 29.2917 21.5833 30.8333 10.7917 30.8333 10.7917 29.2917Z" transform="matrix(1.02703 0 0 1 378 618)"/></g></svg>