<svg width="38" height="38" xmlns="http://www.w3.org/2000/svg" xmlns:xlink="http://www.w3.org/1999/xlink" xml:space="preserve" overflow="hidden"><defs><clipPath id="clip0"><rect x="685" y="429" width="38" height="38"/></clipPath></defs><g clip-path="url(#clip0)" transform="translate(-685 -429)"><path d="M713.467 465.985C713.59 466.405 713.351 466.843 712.93 466.967 712.856 466.989 712.781 467 712.707 467 712.363 467 712.048 466.777 711.948 466.432 710.949 463.037 707.681 460.667 703.998 460.667 700.316 460.667 697.048 463.037 696.049 466.432 695.927 466.853 695.483 467.09 695.067 466.968 694.646 466.845 694.407 466.406 694.53 465.987 695.724 461.922 699.617 459.085 703.997 459.085 708.376 459.085 712.271 461.922 713.464 465.987ZM722.967 451.735C721.773 447.671 717.88 444.833 713.5 444.833 713.063 444.833 712.708 445.188 712.708 445.625 712.708 446.062 713.063 446.417 713.5 446.417 717.181 446.417 720.451 448.787 721.45 452.182 721.55 452.528 721.866 452.75 722.208 452.75 722.283 452.75 722.357 452.739 722.432 452.717 722.853 452.593 723.092 452.155 722.968 451.735ZM695.292 445.625C695.292 445.188 694.937 444.833 694.5 444.833 690.119 444.833 686.226 447.671 685.033 451.735 684.91 452.155 685.149 452.593 685.57 452.717 685.644 452.739 685.719 452.75 685.793 452.75 686.137 452.75 686.452 452.527 686.552 452.182 687.551 448.787 690.819 446.417 694.502 446.417 694.939 446.417 695.293 446.062 695.293 445.625ZM704 443.25C707.493 443.25 710.333 446.091 710.333 449.583 710.333 453.076 707.493 455.917 704 455.917 700.507 455.917 697.667 453.076 697.667 449.583 697.667 446.091 700.507 443.25 704 443.25ZM699.25 449.583C699.25 452.202 701.381 454.333 704 454.333 706.619 454.333 708.75 452.202 708.75 449.583 708.75 446.965 706.619 444.833 704 444.833 701.381 444.833 699.25 446.965 699.25 449.583ZM707.167 435.333C707.167 431.841 710.007 429 713.5 429 716.993 429 719.833 431.841 719.833 435.333 719.833 438.826 716.993 441.667 713.5 441.667 710.007 441.667 707.167 438.826 707.167 435.333ZM708.75 435.333C708.75 437.952 710.881 440.083 713.5 440.083 716.119 440.083 718.25 437.952 718.25 435.333 718.25 432.715 716.119 430.583 713.5 430.583 710.881 430.583 708.75 432.715 708.75 435.333ZM688.167 435.333C688.167 431.841 691.007 429 694.5 429 697.993 429 700.833 431.841 700.833 435.333 700.833 438.826 697.993 441.667 694.5 441.667 691.007 441.667 688.167 438.826 688.167 435.333ZM689.75 435.333C689.75 437.952 691.881 440.083 694.5 440.083 697.119 440.083 699.25 437.952 699.25 435.333 699.25 432.715 697.119 430.583 694.5 430.583 691.881 430.583 689.75 432.715 689.75 435.333Z"/></g></svg>