<svg width="38" height="38" xmlns="http://www.w3.org/2000/svg" xmlns:xlink="http://www.w3.org/1999/xlink" xml:space="preserve" overflow="hidden"><defs><clipPath id="clip0"><rect x="685" y="333" width="38" height="38"/></clipPath></defs><g clip-path="url(#clip0)" transform="translate(-685 -333)"><path d="M704 345.667C705.746 345.667 707.167 344.246 707.167 342.5 707.167 340.754 705.746 339.333 704 339.333 702.254 339.333 700.833 340.754 700.833 342.5 700.833 344.246 702.254 345.667 704 345.667ZM704 340.917C704.874 340.917 705.583 341.626 705.583 342.5 705.583 343.374 704.874 344.083 704 344.083 703.126 344.083 702.417 343.374 702.417 342.5 702.417 341.626 703.126 340.917 704 340.917ZM716.667 363.083C718.85 363.083 720.625 361.308 720.625 359.125 720.625 356.942 718.85 355.167 716.667 355.167 714.483 355.167 712.708 356.942 712.708 359.125 712.708 361.308 714.483 363.083 716.667 363.083ZM716.667 356.75C717.976 356.75 719.042 357.816 719.042 359.125 719.042 360.434 717.976 361.5 716.667 361.5 715.357 361.5 714.292 360.434 714.292 359.125 714.292 357.816 715.357 356.75 716.667 356.75ZM687.375 359.125C687.375 361.308 689.15 363.083 691.333 363.083 693.517 363.083 695.292 361.308 695.292 359.125 695.292 356.942 693.517 355.167 691.333 355.167 689.15 355.167 687.375 356.942 687.375 359.125ZM693.708 359.125C693.708 360.434 692.643 361.5 691.333 361.5 690.024 361.5 688.958 360.434 688.958 359.125 688.958 357.816 690.024 356.75 691.333 356.75 692.643 356.75 693.708 357.816 693.708 359.125ZM722.93 370.088C722.997 370.52 722.639 370.934 722.208 371 721.825 371 721.426 370.72 721.366 370.329 721.01 368.003 718.82 366.25 716.271 366.25 713.722 366.25 711.532 368.003 711.176 370.329 711.117 370.715 710.713 370.991 710.333 371 709.953 371 709.553 370.724 709.489 370.337 709.108 368.006 706.749 366.25 704 366.25 701.251 366.25 698.892 368.006 698.511 370.337 698.447 370.721 698.036 370.997 697.667 371 697.284 371 696.885 370.72 696.824 370.329 696.468 368.003 694.278 366.25 691.729 366.25 689.18 366.25 686.99 368.003 686.634 370.329 686.568 370.761 686.172 371.055 685.732 370.991 685.301 370.924 685.003 370.52 685.07 370.088 685.543 366.997 688.406 364.667 691.729 364.667 694.283 364.667 696.555 366.051 697.689 368.091 698.891 366.051 701.296 364.667 704 364.667 706.704 364.667 709.109 366.051 710.311 368.091 711.445 366.051 713.717 364.667 716.271 364.667 719.594 364.667 722.457 366.997 722.93 370.088ZM723 348.042 723 352.792C723 353.229 722.645 353.583 722.208 353.583 721.771 353.583 721.417 353.229 721.417 352.792L721.417 348.042C721.417 345.858 719.642 344.083 717.458 344.083L715.875 344.083C715.438 344.083 715.083 343.729 715.083 343.292 715.083 342.855 715.438 342.5 715.875 342.5L717.458 342.5C720.514 342.5 723 344.986 723 348.042ZM695.559 345.513C695.399 346.129 695.49 346.767 695.809 347.313 696.131 347.861 696.645 348.251 697.26 348.409 697.876 348.574 698.514 348.48 699.063 348.157L699.416 347.95C700.061 348.488 700.811 348.909 701.627 349.194L701.627 349.623C701.627 350.933 702.692 351.998 704.002 351.998 705.311 351.998 706.377 350.933 706.377 349.623L706.377 349.194C707.192 348.909 707.941 348.488 708.587 347.95L708.94 348.157C709.489 348.48 710.128 348.574 710.743 348.409 711.358 348.249 711.872 347.86 712.192 347.315 712.514 346.767 712.604 346.129 712.444 345.513 712.284 344.899 711.895 344.384 711.348 344.061L710.981 343.844C711.081 343.371 711.13 342.934 711.13 342.498 711.13 342.063 711.082 341.626 710.979 341.151L711.348 340.934C711.896 340.613 712.286 340.098 712.444 339.484 712.604 338.868 712.514 338.23 712.194 337.684 711.872 337.136 711.358 336.746 710.743 336.588 710.128 336.425 709.489 336.517 708.94 336.84L708.587 337.047C707.943 336.509 707.192 336.087 706.377 335.802L706.377 335.373C706.377 334.064 705.311 332.998 704.002 332.998 702.692 332.998 701.627 334.064 701.627 335.373L701.627 335.802C700.811 336.087 700.062 336.509 699.416 337.047L699.063 336.84C698.514 336.517 697.876 336.425 697.26 336.588 696.645 336.748 696.131 337.137 695.811 337.682 695.49 338.23 695.399 338.868 695.559 339.484 695.719 340.098 696.109 340.613 696.653 340.932L697.024 341.151C696.922 341.626 696.873 342.063 696.873 342.498 696.873 342.934 696.921 343.371 697.022 343.844L696.653 344.063C696.107 344.384 695.718 344.899 695.559 345.513ZM698.696 344.012C698.533 343.44 698.458 342.959 698.458 342.5 698.458 342.041 698.534 341.56 698.696 340.988 698.794 340.641 698.648 340.272 698.336 340.09L697.455 339.571C697.272 339.465 697.143 339.292 697.09 339.088 697.038 338.884 697.067 338.67 697.176 338.488 697.282 338.306 697.453 338.176 697.659 338.124 697.865 338.07 698.077 338.1 698.259 338.208L699.114 338.711C699.426 338.895 699.823 338.846 700.075 338.589 700.757 337.905 701.633 337.413 702.615 337.159 702.964 337.068 703.208 336.753 703.208 336.393L703.208 335.377C703.208 334.941 703.565 334.585 704 334.585 704.435 334.585 704.792 334.941 704.792 335.377L704.792 336.393C704.792 336.754 705.036 337.069 705.385 337.159 706.365 337.413 707.243 337.907 707.925 338.589 708.178 338.844 708.574 338.893 708.886 338.711L709.741 338.208C709.922 338.102 710.135 338.071 710.341 338.124 710.547 338.176 710.716 338.306 710.826 338.489 710.932 338.67 710.962 338.884 710.91 339.088 710.857 339.292 710.728 339.463 710.544 339.572L709.664 340.09C709.353 340.272 709.206 340.643 709.304 340.988 709.467 341.56 709.542 342.041 709.542 342.5 709.542 342.959 709.466 343.44 709.304 344.012 709.206 344.359 709.353 344.728 709.665 344.911L710.544 345.426C710.728 345.534 710.857 345.706 710.91 345.912 710.962 346.116 710.933 346.33 710.824 346.512 710.718 346.694 710.547 346.824 710.341 346.876 710.132 346.929 709.923 346.9 709.741 346.792L708.886 346.289C708.576 346.107 708.18 346.156 707.925 346.411 707.243 347.095 706.367 347.587 705.385 347.841 705.036 347.932 704.792 348.247 704.792 348.607L704.792 349.623C704.792 350.059 704.435 350.415 704 350.415 703.565 350.415 703.208 350.059 703.208 349.623L703.208 348.607C703.208 348.246 702.964 347.931 702.615 347.841 701.635 347.587 700.757 347.093 700.075 346.411 699.923 346.257 699.719 346.18 699.514 346.18 699.377 346.18 699.237 346.215 699.112 346.289L698.257 346.792C698.078 346.898 697.866 346.93 697.657 346.876 697.451 346.824 697.282 346.694 697.173 346.511 697.067 346.33 697.036 346.116 697.089 345.912 697.141 345.706 697.271 345.535 697.453 345.428L698.333 344.911C698.644 344.728 698.792 344.357 698.694 344.012ZM685 352.792 685 348.042C685 344.986 687.486 342.5 690.542 342.5L692.125 342.5C692.562 342.5 692.917 342.855 692.917 343.292 692.917 343.729 692.562 344.083 692.125 344.083L690.542 344.083C688.358 344.083 686.583 345.858 686.583 348.042L686.583 352.792C686.583 353.229 686.229 353.583 685.792 353.583 685.355 353.583 685 353.229 685 352.792ZM700.042 359.125C700.042 361.308 701.817 363.083 704 363.083 706.183 363.083 707.958 361.308 707.958 359.125 707.958 356.942 706.183 355.167 704 355.167 701.817 355.167 700.042 356.942 700.042 359.125ZM706.375 359.125C706.375 360.434 705.309 361.5 704 361.5 702.691 361.5 701.625 360.434 701.625 359.125 701.625 357.816 702.691 356.75 704 356.75 705.309 356.75 706.375 357.816 706.375 359.125Z"/></g></svg>